M48
; DRILL file {KiCad (5.1.5)-3} date 31/01/2021 16:43:42
; FORMAT={-:-/ absolute / inch / decimal}
; #@! TF.CreationDate,2021-01-31T16:43:42+01:00
; #@! TF.GenerationSoftware,Kicad,Pcbnew,(5.1.5)-3
; #@! TF.FileFunction,Plated,1,2,PTH
FMAT,2
INCH
T1C0.0157
T2C0.0315
T3C0.0394
T4C0.0433
%
G90
G05
T1
X1.7569Y-6.0998
X1.9568Y-3.3959
X2.1258Y-5.65
X2.1364Y-2.7242
X2.2485Y-3.8196
X2.6204Y-2.6136
X2.6789Y-3.3844
X2.8258Y-5.4901
X2.8266Y-3.1294
X2.8406Y-2.255
X2.8432Y-5.6021
X2.9702Y-5.4789
X3.1074Y-3.289
X3.1253Y-5.0346
X3.409Y-2.1836
X3.4628Y-3.3209
X3.5854Y-5.1903
X3.7317Y-4.315
X3.9157Y-2.5586
X3.9747Y-2.6853
X4.0156Y-5.3057
X4.0783Y-5.2
X4.1502Y-2.5658
X4.9939Y-3.8
X5.3235Y-5.4499
X5.4788Y-2.8094
X5.5728Y-3.274
X5.7469Y-3.4923
X5.8558Y-3.4758
X5.8627Y-2.652
X5.9213Y-3.0052
X5.9504Y-2.3136
X5.9712Y-2.7082
X6.0069Y-2.6288
X6.0935Y-5.0264
X6.1956Y-2.1284
X6.2458Y-1.8059
X6.386Y-2.6616
X6.449Y-1.7487
X6.4771Y-2.2192
X6.4844Y-3.6847
X6.5421Y-2.6759
X6.5496Y-2.7559
X6.589Y-2.7441
X6.6673Y-2.5819
X6.6883Y-3.0704
X6.7208Y-2.8778
X6.7932Y-2.4835
X6.811Y-4.034
X6.9364Y-3.753
X7.1312Y-3.8036
X7.3104Y-5.9454
X7.6441Y-2.6761
X7.7628Y-3.1976
X8.2056Y-2.8851
X8.2864Y-1.7656
X8.4986Y-2.545
T2
X8.15Y-4.025
X8.15Y-4.125
X8.15Y-4.225
X8.15Y-4.325
X8.15Y-4.425
X8.15Y-4.525
X8.15Y-4.625
X8.45Y-4.025
X8.45Y-4.125
X8.45Y-4.225
X8.45Y-4.325
X8.45Y-4.425
X8.45Y-4.525
X8.45Y-4.625
X3.3Y-5.3
X3.3Y-5.4
X3.3Y-5.5
X3.3Y-5.6
X3.3Y-5.7
X3.3Y-5.8
X3.3Y-5.9
X3.3Y-6.0
X3.6Y-5.3
X3.6Y-5.4
X3.6Y-5.5
X3.6Y-5.6
X3.6Y-5.7
X3.6Y-5.8
X3.6Y-5.9
X3.6Y-6.0
X6.7Y-2.775
X6.7984Y-2.775
X8.2516Y-2.775
X8.35Y-2.775
X4.95Y-1.8
X4.95Y-1.9
X4.95Y-2.0
X4.95Y-2.1
X4.95Y-2.2
X4.95Y-2.3
X4.95Y-2.4
X4.95Y-2.5
X4.95Y-2.6
X4.95Y-2.7
X5.25Y-1.8
X5.25Y-1.9
X5.25Y-2.0
X5.25Y-2.1
X5.25Y-2.2
X5.25Y-2.3
X5.25Y-2.4
X5.25Y-2.5
X5.25Y-2.6
X5.25Y-2.7
X6.7016Y-3.875
X6.8Y-3.875
X1.9Y-4.825
X1.9Y-5.125
X6.6Y-4.025
X6.6Y-4.125
X6.6Y-4.225
X6.6Y-4.325
X6.6Y-4.425
X6.6Y-4.525
X6.6Y-4.625
X6.9Y-4.025
X6.9Y-4.125
X6.9Y-4.225
X6.9Y-4.325
X6.9Y-4.425
X6.9Y-4.525
X6.9Y-4.625
X6.05Y-1.8
X6.05Y-1.9
X6.05Y-2.0
X6.05Y-2.1
X6.05Y-2.2
X6.05Y-2.3
X6.05Y-2.4
X6.05Y-2.5
X6.35Y-1.8
X6.35Y-1.9
X6.35Y-2.0
X6.35Y-2.1
X6.35Y-2.2
X6.35Y-2.3
X6.35Y-2.4
X6.35Y-2.5
X5.5Y-2.925
X5.5Y-3.025
X5.5Y-3.125
X5.5Y-3.225
X5.5Y-3.325
X5.5Y-3.425
X5.5Y-3.525
X5.5Y-3.625
X5.5Y-3.725
X5.5Y-3.825
X5.8Y-2.925
X5.8Y-3.025
X5.8Y-3.125
X5.8Y-3.225
X5.8Y-3.325
X5.8Y-3.425
X5.8Y-3.525
X5.8Y-3.625
X5.8Y-3.725
X5.8Y-3.825
X7.775Y-5.65
X8.075Y-5.65
X4.6516Y-2.75
X4.75Y-2.75
X6.1516Y-5.15
X6.25Y-5.15
X4.2266Y-2.65
X4.325Y-2.65
X2.25Y-5.3
X2.25Y-5.4
X2.25Y-5.5
X2.25Y-5.6
X2.25Y-5.7
X2.25Y-5.8
X2.25Y-5.9
X2.25Y-6.0
X2.55Y-5.3
X2.55Y-5.4
X2.55Y-5.5
X2.55Y-5.6
X2.55Y-5.7
X2.55Y-5.8
X2.55Y-5.9
X2.55Y-6.0
X6.15Y-3.875
X6.2484Y-3.875
X2.35Y-4.825
X2.35Y-5.125
X3.3Y-1.8
X3.3Y-1.9
X3.3Y-2.0
X3.3Y-2.1
X3.3Y-2.2
X3.3Y-2.3
X3.3Y-2.4
X3.3Y-2.5
X3.3Y-2.6
X3.3Y-2.7
X3.6Y-1.8
X3.6Y-1.9
X3.6Y-2.0
X3.6Y-2.1
X3.6Y-2.2
X3.6Y-2.3
X3.6Y-2.4
X3.6Y-2.5
X3.6Y-2.6
X3.6Y-2.7
X6.1516Y-2.775
X6.25Y-2.775
X2.8Y-4.825
X2.8Y-5.125
X2.5Y-4.825
X2.5Y-5.125
X7.15Y-4.025
X7.15Y-4.125
X7.15Y-4.225
X7.15Y-4.325
X7.15Y-4.425
X7.15Y-4.525
X7.15Y-4.625
X7.15Y-4.725
X7.45Y-4.025
X7.45Y-4.125
X7.45Y-4.225
X7.45Y-4.325
X7.45Y-4.425
X7.45Y-4.525
X7.45Y-4.625
X7.45Y-4.725
X3.5Y-5.125
X3.5984Y-5.125
X6.6Y-5.3
X6.6Y-5.4
X6.6Y-5.5
X6.6Y-5.6
X6.6Y-5.7
X6.6Y-5.8
X6.6Y-5.9
X6.6Y-6.0
X6.9Y-5.3
X6.9Y-5.4
X6.9Y-5.5
X6.9Y-5.6
X6.9Y-5.7
X6.9Y-5.8
X6.9Y-5.9
X6.9Y-6.0
X3.4016Y-3.875
X3.5Y-3.875
X2.75Y-4.025
X2.75Y-4.125
X2.75Y-4.225
X2.75Y-4.325
X2.75Y-4.425
X2.75Y-4.525
X2.75Y-4.625
X3.05Y-4.025
X3.05Y-4.125
X3.05Y-4.225
X3.05Y-4.325
X3.05Y-4.425
X3.05Y-4.525
X3.05Y-4.625
X2.25Y-1.8
X2.25Y-1.9
X2.25Y-2.0
X2.25Y-2.1
X2.25Y-2.2
X2.25Y-2.3
X2.25Y-2.4
X2.25Y-2.5
X2.55Y-1.8
X2.55Y-1.9
X2.55Y-2.0
X2.55Y-2.1
X2.55Y-2.2
X2.55Y-2.3
X2.55Y-2.4
X2.55Y-2.5
X7.65Y-2.925
X7.65Y-3.025
X7.65Y-3.125
X7.65Y-3.225
X7.65Y-3.325
X7.65Y-3.425
X7.65Y-3.525
X7.95Y-2.925
X7.95Y-3.025
X7.95Y-3.125
X7.95Y-3.225
X7.95Y-3.325
X7.95Y-3.425
X7.95Y-3.525
X1.75Y-2.925
X1.75Y-3.025
X1.75Y-3.125
X1.75Y-3.225
X1.75Y-3.325
X1.75Y-3.425
X1.75Y-3.525
X1.75Y-3.625
X2.05Y-2.925
X2.05Y-3.025
X2.05Y-3.125
X2.05Y-3.225
X2.05Y-3.325
X2.05Y-3.425
X2.05Y-3.525
X2.05Y-3.625
X6.05Y-2.925
X6.05Y-3.025
X6.05Y-3.125
X6.05Y-3.225
X6.05Y-3.325
X6.05Y-3.425
X6.05Y-3.525
X6.05Y-3.625
X6.35Y-2.925
X6.35Y-3.025
X6.35Y-3.125
X6.35Y-3.225
X6.35Y-3.325
X6.35Y-3.425
X6.35Y-3.525
X6.35Y-3.625
X6.7Y-5.15
X6.7984Y-5.15
X1.75Y-4.825
X1.75Y-5.125
X1.75Y-1.8
X1.75Y-1.9
X1.75Y-2.0
X1.75Y-2.1
X1.75Y-2.2
X1.75Y-2.3
X1.75Y-2.4
X2.05Y-1.8
X2.05Y-1.9
X2.05Y-2.0
X2.05Y-2.1
X2.05Y-2.2
X2.05Y-2.3
X2.05Y-2.4
X8.2516Y-3.875
X8.35Y-3.875
X2.2Y-4.825
X2.2Y-5.125
X1.75Y-5.3
X1.75Y-5.4
X1.75Y-5.5
X1.75Y-5.6
X1.75Y-5.7
X1.75Y-5.8
X1.75Y-5.9
X1.75Y-6.0
X2.05Y-5.3
X2.05Y-5.4
X2.05Y-5.5
X2.05Y-5.6
X2.05Y-5.7
X2.05Y-5.8
X2.05Y-5.9
X2.05Y-6.0
X5.5Y-1.8
X5.5Y-1.9
X5.5Y-2.0
X5.5Y-2.1
X5.5Y-2.2
X5.5Y-2.3
X5.5Y-2.4
X5.5Y-2.5
X5.5Y-2.6
X5.5Y-2.7
X5.8Y-1.8
X5.8Y-1.9
X5.8Y-2.0
X5.8Y-2.1
X5.8Y-2.2
X5.8Y-2.3
X5.8Y-2.4
X5.8Y-2.5
X5.8Y-2.6
X5.8Y-2.7
X7.15Y-1.8
X7.15Y-1.9
X7.15Y-2.0
X7.15Y-2.1
X7.15Y-2.2
X7.15Y-2.3
X7.15Y-2.4
X7.15Y-2.5
X7.15Y-2.6
X7.15Y-2.7
X7.45Y-1.8
X7.45Y-1.9
X7.45Y-2.0
X7.45Y-2.1
X7.45Y-2.2
X7.45Y-2.3
X7.45Y-2.4
X7.45Y-2.5
X7.45Y-2.6
X7.45Y-2.7
X2.75Y-2.925
X2.75Y-3.025
X2.75Y-3.125
X2.75Y-3.225
X2.75Y-3.325
X2.75Y-3.425
X2.75Y-3.525
X2.75Y-3.625
X3.05Y-2.925
X3.05Y-3.025
X3.05Y-3.125
X3.05Y-3.225
X3.05Y-3.325
X3.05Y-3.425
X3.05Y-3.525
X3.05Y-3.625
X2.8516Y-2.775
X2.95Y-2.775
X3.3Y-4.025
X3.3Y-4.125
X3.3Y-4.225
X3.3Y-4.325
X3.3Y-4.425
X3.3Y-4.525
X3.3Y-4.625
X3.6Y-4.025
X3.6Y-4.125
X3.6Y-4.225
X3.6Y-4.325
X3.6Y-4.425
X3.6Y-4.525
X3.6Y-4.625
X3.85Y-1.8
X3.85Y-1.9
X3.85Y-2.0
X3.85Y-2.1
X3.85Y-2.2
X3.85Y-2.3
X3.85Y-2.4
X3.85Y-2.5
X4.15Y-1.8
X4.15Y-1.9
X4.15Y-2.0
X4.15Y-2.1
X4.15Y-2.2
X4.15Y-2.3
X4.15Y-2.4
X4.15Y-2.5
X8.15Y-2.925
X8.15Y-3.025
X8.15Y-3.125
X8.15Y-3.225
X8.15Y-3.325
X8.15Y-3.425
X8.15Y-3.525
X8.45Y-2.925
X8.45Y-3.025
X8.45Y-3.125
X8.45Y-3.225
X8.45Y-3.325
X8.45Y-3.425
X8.45Y-3.525
X6.05Y-5.3
X6.05Y-5.4
X6.05Y-5.5
X6.05Y-5.6
X6.05Y-5.7
X6.05Y-5.8
X6.05Y-5.9
X6.05Y-6.0
X6.35Y-5.3
X6.35Y-5.4
X6.35Y-5.5
X6.35Y-5.6
X6.35Y-5.7
X6.35Y-5.8
X6.35Y-5.9
X6.35Y-6.0
X1.8516Y-2.775
X1.95Y-2.775
X3.075Y-5.125
X3.1734Y-5.125
X4.4Y-1.8
X4.4Y-1.9
X4.4Y-2.0
X4.4Y-2.1
X4.4Y-2.2
X4.4Y-2.3
X4.4Y-2.4
X4.4Y-2.5
X4.7Y-1.8
X4.7Y-1.9
X4.7Y-2.0
X4.7Y-2.1
X4.7Y-2.2
X4.7Y-2.3
X4.7Y-2.4
X4.7Y-2.5
X2.65Y-4.825
X2.65Y-5.125
X8.15Y-1.8
X8.15Y-1.9
X8.15Y-2.0
X8.15Y-2.1
X8.15Y-2.2
X8.15Y-2.3
X8.15Y-2.4
X8.15Y-2.5
X8.45Y-1.8
X8.45Y-1.9
X8.45Y-2.0
X8.45Y-2.1
X8.45Y-2.2
X8.45Y-2.3
X8.45Y-2.4
X8.45Y-2.5
X6.6Y-2.925
X6.6Y-3.025
X6.6Y-3.125
X6.6Y-3.225
X6.6Y-3.325
X6.6Y-3.425
X6.6Y-3.525
X6.6Y-3.625
X6.9Y-2.925
X6.9Y-3.025
X6.9Y-3.125
X6.9Y-3.225
X6.9Y-3.325
X6.9Y-3.425
X6.9Y-3.525
X6.9Y-3.625
X3.85Y-2.8
X3.85Y-2.9
X3.85Y-3.0
X3.85Y-3.1
X3.85Y-3.2
X3.85Y-3.3
X3.85Y-3.4
X3.85Y-3.5
X3.85Y-3.6
X3.85Y-3.7
X3.85Y-3.8
X3.85Y-3.9
X3.85Y-4.0
X3.85Y-4.1
X3.85Y-4.2
X3.85Y-4.3
X4.45Y-2.8
X4.45Y-2.9
X4.45Y-3.0
X4.45Y-3.1
X4.45Y-3.2
X4.45Y-3.3
X4.45Y-3.4
X4.45Y-3.5
X4.45Y-3.6
X4.45Y-3.7
X4.45Y-3.8
X4.45Y-3.9
X4.45Y-4.0
X4.45Y-4.1
X4.45Y-4.2
X4.45Y-4.3
X7.875Y-5.35
X7.9734Y-5.35
X4.65Y-2.9
X4.65Y-3.0
X4.65Y-3.1
X4.65Y-3.2
X4.65Y-3.3
X4.65Y-3.4
X4.65Y-3.5
X4.65Y-3.6
X4.65Y-3.7
X4.65Y-3.8
X4.65Y-3.9
X4.65Y-4.0
X4.65Y-4.1
X4.65Y-4.2
X4.65Y-4.3
X4.65Y-4.4
X5.25Y-2.9
X5.25Y-3.0
X5.25Y-3.1
X5.25Y-3.2
X5.25Y-3.3
X5.25Y-3.4
X5.25Y-3.5
X5.25Y-3.6
X5.25Y-3.7
X5.25Y-3.8
X5.25Y-3.9
X5.25Y-4.0
X5.25Y-4.1
X5.25Y-4.2
X5.25Y-4.3
X5.25Y-4.4
X7.7516Y-2.775
X7.85Y-2.775
X7.2516Y-5.15
X7.35Y-5.15
X2.3516Y-3.875
X2.45Y-3.875
X2.75Y-1.8
X2.75Y-1.9
X2.75Y-2.0
X2.75Y-2.1
X2.75Y-2.2
X2.75Y-2.3
X2.75Y-2.4
X2.75Y-2.5
X3.05Y-1.8
X3.05Y-1.9
X3.05Y-2.0
X3.05Y-2.1
X3.05Y-2.2
X3.05Y-2.3
X3.05Y-2.4
X3.05Y-2.5
X3.5Y-4.825
X3.5984Y-4.825
X4.65Y-4.7
X4.65Y-4.8
X4.65Y-4.9
X4.65Y-5.0
X4.65Y-5.1
X4.65Y-5.2
X4.65Y-5.3
X4.65Y-5.4
X4.65Y-5.5
X4.65Y-5.6
X4.65Y-5.7
X4.65Y-5.8
X4.65Y-5.9
X4.65Y-6.0
X5.25Y-4.7
X5.25Y-4.8
X5.25Y-4.9
X5.25Y-5.0
X5.25Y-5.1
X5.25Y-5.2
X5.25Y-5.3
X5.25Y-5.4
X5.25Y-5.5
X5.25Y-5.6
X5.25Y-5.7
X5.25Y-5.8
X5.25Y-5.9
X5.25Y-6.0
X2.8516Y-3.875
X2.95Y-3.875
X2.05Y-4.825
X2.05Y-5.125
X5.5Y-5.3
X5.5Y-5.4
X5.5Y-5.5
X5.5Y-5.6
X5.5Y-5.7
X5.5Y-5.8
X5.5Y-5.9
X5.5Y-6.0
X5.8Y-5.3
X5.8Y-5.4
X5.8Y-5.5
X5.8Y-5.6
X5.8Y-5.7
X5.8Y-5.8
X5.8Y-5.9
X5.8Y-6.0
X2.25Y-2.925
X2.25Y-3.025
X2.25Y-3.125
X2.25Y-3.225
X2.25Y-3.325
X2.25Y-3.425
X2.25Y-3.525
X2.25Y-3.625
X2.55Y-2.925
X2.55Y-3.025
X2.55Y-3.125
X2.55Y-3.225
X2.55Y-3.325
X2.55Y-3.425
X2.55Y-3.525
X2.55Y-3.625
X7.65Y-1.8
X7.65Y-1.9
X7.65Y-2.0
X7.65Y-2.1
X7.65Y-2.2
X7.65Y-2.3
X7.65Y-2.4
X7.65Y-2.5
X7.95Y-1.8
X7.95Y-1.9
X7.95Y-2.0
X7.95Y-2.1
X7.95Y-2.2
X7.95Y-2.3
X7.95Y-2.4
X7.95Y-2.5
X3.3Y-2.925
X3.3Y-3.025
X3.3Y-3.125
X3.3Y-3.225
X3.3Y-3.325
X3.3Y-3.425
X3.3Y-3.525
X3.3Y-3.625
X3.6Y-2.925
X3.6Y-3.025
X3.6Y-3.125
X3.6Y-3.225
X3.6Y-3.325
X3.6Y-3.425
X3.6Y-3.525
X3.6Y-3.625
X7.65Y-4.025
X7.65Y-4.125
X7.65Y-4.225
X7.65Y-4.325
X7.65Y-4.425
X7.65Y-4.525
X7.65Y-4.625
X7.65Y-4.725
X7.95Y-4.025
X7.95Y-4.125
X7.95Y-4.225
X7.95Y-4.325
X7.95Y-4.425
X7.95Y-4.525
X7.95Y-4.625
X7.95Y-4.725
X5.5Y-4.025
X5.5Y-4.125
X5.5Y-4.225
X5.5Y-4.325
X5.5Y-4.425
X5.5Y-4.525
X5.5Y-4.625
X5.5Y-4.725
X5.5Y-4.825
X5.5Y-4.925
X5.8Y-4.025
X5.8Y-4.125
X5.8Y-4.225
X5.8Y-4.325
X5.8Y-4.425
X5.8Y-4.525
X5.8Y-4.625
X5.8Y-4.725
X5.8Y-4.825
X5.8Y-4.925
X5.6016Y-5.15
X5.7Y-5.15
X6.05Y-4.025
X6.05Y-4.125
X6.05Y-4.225
X6.05Y-4.325
X6.05Y-4.425
X6.05Y-4.525
X6.05Y-4.625
X6.35Y-4.025
X6.35Y-4.125
X6.35Y-4.225
X6.35Y-4.325
X6.35Y-4.425
X6.35Y-4.525
X6.35Y-4.625
X7.15Y-5.3
X7.15Y-5.4
X7.15Y-5.5
X7.15Y-5.6
X7.15Y-5.7
X7.15Y-5.8
X7.15Y-5.9
X7.15Y-6.0
X7.45Y-5.3
X7.45Y-5.4
X7.45Y-5.5
X7.45Y-5.6
X7.45Y-5.7
X7.45Y-5.8
X7.45Y-5.9
X7.45Y-6.0
X2.25Y-4.025
X2.25Y-4.125
X2.25Y-4.225
X2.25Y-4.325
X2.25Y-4.425
X2.25Y-4.525
X2.25Y-4.625
X2.55Y-4.025
X2.55Y-4.125
X2.55Y-4.225
X2.55Y-4.325
X2.55Y-4.425
X2.55Y-4.525
X2.55Y-4.625
X2.75Y-5.3
X2.75Y-5.4
X2.75Y-5.5
X2.75Y-5.6
X2.75Y-5.7
X2.75Y-5.8
X2.75Y-5.9
X2.75Y-6.0
X3.05Y-5.3
X3.05Y-5.4
X3.05Y-5.5
X3.05Y-5.6
X3.05Y-5.7
X3.05Y-5.8
X3.05Y-5.9
X3.05Y-6.0
X7.75Y-3.875
X7.8484Y-3.875
X3.075Y-4.825
X3.1734Y-4.825
X3.85Y-4.5
X3.85Y-4.6
X3.85Y-4.7
X3.85Y-4.8
X3.85Y-4.9
X3.85Y-5.0
X3.85Y-5.1
X3.85Y-5.2
X3.85Y-5.3
X3.85Y-5.4
X3.85Y-5.5
X3.85Y-5.6
X3.85Y-5.7
X3.85Y-5.8
X3.85Y-5.9
X3.85Y-6.0
X4.45Y-4.5
X4.45Y-4.6
X4.45Y-4.7
X4.45Y-4.8
X4.45Y-4.9
X4.45Y-5.0
X4.45Y-5.1
X4.45Y-5.2
X4.45Y-5.3
X4.45Y-5.4
X4.45Y-5.5
X4.45Y-5.6
X4.45Y-5.7
X4.45Y-5.8
X4.45Y-5.9
X4.45Y-6.0
X6.6Y-1.8
X6.6Y-1.9
X6.6Y-2.0
X6.6Y-2.1
X6.6Y-2.2
X6.6Y-2.3
X6.6Y-2.4
X6.6Y-2.5
X6.9Y-1.8
X6.9Y-1.9
X6.9Y-2.0
X6.9Y-2.1
X6.9Y-2.2
X6.9Y-2.3
X6.9Y-2.4
X6.9Y-2.5
X7.15Y-2.925
X7.15Y-3.025
X7.15Y-3.125
X7.15Y-3.225
X7.15Y-3.325
X7.15Y-3.425
X7.15Y-3.525
X7.45Y-2.925
X7.45Y-3.025
X7.45Y-3.125
X7.45Y-3.225
X7.45Y-3.325
X7.45Y-3.425
X7.45Y-3.525
X1.75Y-4.025
X1.75Y-4.625
X2.05Y-4.025
X2.05Y-4.625
X2.3516Y-2.775
X2.45Y-2.775
T3
X8.45Y-5.5
X8.45Y-5.6
X8.45Y-5.7
X8.45Y-5.8
X8.45Y-5.9
X8.45Y-6.0
T4
X7.7941Y-5.8228
X7.7941Y-6.0
X8.05Y-5.8228
X8.05Y-6.0
T0
M30
